<svg style="display:none" aria-hidden="true">
  <defs>
      <symbol id="icon-arrow-left" viewBox="0 0 24 24"><path d="m12 19-7-7 7-7"/>
  <path d="M19 12H5"/></symbol>
      <symbol id="icon-arrow-right" viewBox="0 0 24 24"><path d="M5 12h14"/>
  <path d="m12 5 7 7-7 7"/></symbol>
      <symbol id="icon-check" viewBox="0 0 24 24"><path d="M5 13l4 4L19 7" fill="none" stroke="currentColor" stroke-width="2" stroke-linecap="round" stroke-linejoin="round"/></symbol>
      <symbol id="icon-chevron-down" viewBox="0 0 24 24"><path d="M6 9l6 6 6-6" fill="none" stroke="currentColor" stroke-width="2" stroke-linecap="round" stroke-linejoin="round"/></symbol>
      <symbol id="icon-chevron-left" viewBox="0 0 24 24"><path d="M15 6l-6 6 6 6" fill="none" stroke="currentColor" stroke-width="2" stroke-linecap="round" stroke-linejoin="round"/></symbol>
      <symbol id="icon-chevron-right" viewBox="0 0 24 24"><path d="M9 6l6 6-6 6" fill="none" stroke="currentColor" stroke-width="2" stroke-linecap="round" stroke-linejoin="round"/></symbol>
      <symbol id="icon-chevron-up" viewBox="0 0 24 24"><path d="M6 15l6-6 6 6" fill="none" stroke="currentColor" stroke-width="2" stroke-linecap="round" stroke-linejoin="round"/></symbol>
      <symbol id="icon-close" viewBox="0 0 24 24"><path d="M6 6l12 12M18 6L6 18" fill="none" stroke="currentColor" stroke-width="2" stroke-linecap="round"/></symbol>
      <symbol id="icon-edit" viewBox="0 0 24 24"><path d="M4 20h4l10-10-4-4L4 16v4zM13 7l4 4" fill="none" stroke="currentColor" stroke-width="2" stroke-linecap="round" stroke-linejoin="round"/></symbol>
      <symbol id="icon-eye-off" viewBox="0 0 24 24"><path d="M10.73 5.08A10.4 10.4 0 0 1 12 5c7 0 10 7 10 7a13.2 13.2 0 0 1-1.67 2.68"/>
  <path d="M6.61 6.61A13.5 13.5 0 0 0 2 12s3 7 10 7a9.7 9.7 0 0 0 5.39-1.61"/>
  <line x1="2" y1="2" x2="22" y2="22"/>
  <path d="M9.88 9.88a3 3 0 1 0 4.24 4.24"/></symbol>
      <symbol id="icon-eye" viewBox="0 0 24 24"><path d="M2 12s3-7 10-7 10 7 10 7-3 7-10 7-10-7-10-7Z"/>
  <circle cx="12" cy="12" r="3"/></symbol>
      <symbol id="icon-filter" viewBox="0 0 24 24"><path d="M4 5h16l-6 7v6l-4 2v-8z" fill="none" stroke="currentColor" stroke-width="2" stroke-linejoin="round"/></symbol>
      <symbol id="icon-folder" viewBox="0 0 24 24"><path d="M3 7h5l2 2h11v10a2 2 0 0 1-2 2H5a2 2 0 0 1-2-2z"/>
  <path d="M3 7V5a2 2 0 0 1 2-2h4l2 2"/></symbol>
      <symbol id="icon-globe" viewBox="0 0 24 24"><circle cx="12" cy="12" r="10"/>
  <path d="M12 2a14.5 14.5 0 0 0 0 20 14.5 14.5 0 0 0 0-20"/>
  <path d="M2 12h20"/></symbol>
      <symbol id="icon-info" viewBox="0 0 24 24"><circle cx="12" cy="12" r="9" fill="none" stroke="currentColor" stroke-width="2"/><path d="M12 11v6M12 8h.01" fill="none" stroke="currentColor" stroke-width="2" stroke-linecap="round"/></symbol>
      <symbol id="icon-layout-grid" viewBox="0 0 24 24"><rect x="3" y="3" width="7" height="7"/>
  <rect x="14" y="3" width="7" height="7"/>
  <rect x="14" y="14" width="7" height="7"/>
  <rect x="3" y="14" width="7" height="7"/></symbol>
      <symbol id="icon-maximize-2" viewBox="0 0 24 24"><polyline points="15 3 21 3 21 9"/>
  <polyline points="9 21 3 21 3 15"/>
  <line x1="21" y1="3" x2="14" y2="10"/>
  <line x1="3" y1="21" x2="10" y2="14"/></symbol>
      <symbol id="icon-menu" viewBox="0 0 24 24"><path d="M4 7h16M4 12h16M4 17h16" fill="none" stroke="currentColor" stroke-width="2" stroke-linecap="round"/></symbol>
      <symbol id="icon-minimize-2" viewBox="0 0 24 24"><polyline points="4 14 10 14 10 20"/>
  <polyline points="20 10 14 10 14 4"/>
  <line x1="14" y1="10" x2="21" y2="3"/>
  <line x1="3" y1="21" x2="10" y2="14"/></symbol>
      <symbol id="icon-more-horizontal" viewBox="0 0 24 24"><circle cx="12" cy="12" r="1"/>
  <circle cx="19" cy="12" r="1"/>
  <circle cx="5" cy="12" r="1"/></symbol>
      <symbol id="icon-network" viewBox="0 0 24 24"><rect x="16" y="16" width="6" height="6" rx="1"/>
  <rect x="2" y="16" width="6" height="6" rx="1"/>
  <rect x="9" y="2" width="6" height="6" rx="1"/>
  <path d="M5 16v-3a1 1 0 0 1 1-1h12a1 1 0 0 1 1 1v3"/>
  <path d="M12 8v5"/></symbol>
      <symbol id="icon-plus" viewBox="0 0 24 24"><path d="M12 5v14"/>
  <path d="M5 12h14"/></symbol>
      <symbol id="icon-save" viewBox="0 0 24 24"><path d="M4 4h13l3 3v13H4zM8 4v6h8V4M8 20v-6h8v6" fill="none" stroke="currentColor" stroke-width="2" stroke-linecap="round" stroke-linejoin="round"/></symbol>
      <symbol id="icon-search" viewBox="0 0 24 24"><circle cx="11" cy="11" r="7" fill="none" stroke="currentColor" stroke-width="2"/><path d="M20 20l-3.5-3.5" fill="none" stroke="currentColor" stroke-width="2" stroke-linecap="round"/></symbol>
      <symbol id="icon-settings" viewBox="0 0 24 24"><path d="M12 15.5A3.5 3.5 0 1 0 12 8.5a3.5 3.5 0 0 0 0 7Z"/>
  <path d="M19.4 15a1.7 1.7 0 0 0 .33 1.82l.06.06a2 2 0 1 1-2.83 2.83l-.06-.06a1.7 1.7 0 0 0-1.82-.33 1.7 1.7 0 0 0-1 1.56V21a2 2 0 1 1-4 0v-.09a1.7 1.7 0 0 0-1-1.56 1.7 1.7 0 0 0-1.82.33l-.06.06a2 2 0 1 1-2.83-2.83l.06-.06a1.7 1.7 0 0 0 .33-1.82 1.7 1.7 0 0 0-1.56-1H3a2 2 0 1 1 0-4h.09a1.7 1.7 0 0 0 1.56-1 1.7 1.7 0 0 0-.33-1.82l-.06-.06a2 2 0 1 1 2.83-2.83l.06.06a1.7 1.7 0 0 0 1.82.33h.01a1.7 1.7 0 0 0 1-1.56V3a2 2 0 1 1 4 0v.09a1.7 1.7 0 0 0 1 1.56h.01a1.7 1.7 0 0 0 1.82-.33l.06-.06a2 2 0 1 1 2.83 2.83l-.06.06a1.7 1.7 0 0 0-.33 1.82v.01a1.7 1.7 0 0 0 1.56 1H21a2 2 0 1 1 0 4h-.09a1.7 1.7 0 0 0-1.56 1Z"/></symbol>
      <symbol id="icon-share-2" viewBox="0 0 24 24"><circle cx="18" cy="5" r="3"/>
  <circle cx="6" cy="12" r="3"/>
  <circle cx="18" cy="19" r="3"/>
  <line x1="8.59" y1="13.51" x2="15.42" y2="17.49"/>
  <line x1="15.41" y1="6.51" x2="8.59" y2="10.49"/></symbol>
      <symbol id="icon-sliders-horizontal" viewBox="0 0 24 24"><line x1="4" y1="21" x2="4" y2="14"/>
  <line x1="4" y1="10" x2="4" y2="3"/>
  <line x1="12" y1="21" x2="12" y2="12"/>
  <line x1="12" y1="8" x2="12" y2="3"/>
  <line x1="20" y1="21" x2="20" y2="16"/>
  <line x1="20" y1="12" x2="20" y2="3"/>
  <line x1="1" y1="14" x2="7" y2="14"/>
  <line x1="9" y1="8" x2="15" y2="8"/>
  <line x1="17" y1="16" x2="23" y2="16"/></symbol>
      <symbol id="icon-spinner" viewBox="0 0 24 24"><path d="M12 3a9 9 0 1 0 9 9" fill="none" stroke="currentColor" stroke-width="2" stroke-linecap="round"/></symbol>
      <symbol id="icon-sun" viewBox="0 0 24 24"><circle cx="12" cy="12" r="4"/>
  <path d="M12 2v2M12 20v2M4.93 4.93l1.41 1.41M17.66 17.66l1.41 1.41M2 12h2M20 12h2M6.34 17.66l-1.41 1.41M19.07 4.93l-1.41 1.41"/></symbol>
      <symbol id="icon-warning" viewBox="0 0 24 24"><path d="M12 3l9 16H3z" fill="none" stroke="currentColor" stroke-width="2" stroke-linejoin="round"/><path d="M12 9v5M12 17h.01" fill="none" stroke="currentColor" stroke-width="2" stroke-linecap="round"/></symbol>
      <symbol id="icon-x" viewBox="0 0 24 24"><path d="M6 6l12 12M18 6L6 18" fill="none" stroke="currentColor" stroke-width="2" stroke-linecap="round"/></symbol>
      <symbol id="icon-zap" viewBox="0 0 24 24"><polygon points="13 2 3 14 12 14 11 22 21 10 12 10 13 2"/></symbol>
      <symbol id="icon-database" viewBox="0 0 24 24"><ellipse cx="12" cy="5" rx="9" ry="3"/>
  <path d="M3 5V19A9 3 0 0 0 21 19V5"/>
  <path d="M3 12A9 3 0 0 0 21 12"/></symbol>
      <symbol id="icon-file-text" viewBox="0 0 24 24"><path d="M15 2H6a2 2 0 0 0-2 2v16a2 2 0 0 0 2 2h12a2 2 0 0 0 2-2V7Z"/>
  <path d="M14 2v4a2 2 0 0 0 2 2h4"/>
  <path d="M10 9H8"/>
  <path d="M16 13H8"/>
  <path d="M16 17H8"/></symbol>
  </defs>
</svg>