<svg style="display:none" aria-hidden="true">
  <defs>
      <symbol id="icon-check" viewBox="0 0 24 24"><path d="M5 13l4 4L19 7" fill="none" stroke="currentColor" stroke-width="2" stroke-linecap="round" stroke-linejoin="round"/></symbol>
      <symbol id="icon-chevron-down" viewBox="0 0 24 24"><path d="M6 9l6 6 6-6" fill="none" stroke="currentColor" stroke-width="2" stroke-linecap="round" stroke-linejoin="round"/></symbol>
      <symbol id="icon-chevron-left" viewBox="0 0 24 24"><path d="M15 6l-6 6 6 6" fill="none" stroke="currentColor" stroke-width="2" stroke-linecap="round" stroke-linejoin="round"/></symbol>
      <symbol id="icon-chevron-right" viewBox="0 0 24 24"><path d="M9 6l6 6-6 6" fill="none" stroke="currentColor" stroke-width="2" stroke-linecap="round" stroke-linejoin="round"/></symbol>
      <symbol id="icon-chevron-up" viewBox="0 0 24 24"><path d="M6 15l6-6 6 6" fill="none" stroke="currentColor" stroke-width="2" stroke-linecap="round" stroke-linejoin="round"/></symbol>
      <symbol id="icon-close" viewBox="0 0 24 24"><path d="M6 6l12 12M18 6L6 18" fill="none" stroke="currentColor" stroke-width="2" stroke-linecap="round"/></symbol>
      <symbol id="icon-edit" viewBox="0 0 24 24"><path d="M4 20h4l10-10-4-4L4 16v4zM13 7l4 4" fill="none" stroke="currentColor" stroke-width="2" stroke-linecap="round" stroke-linejoin="round"/></symbol>
      <symbol id="icon-filter" viewBox="0 0 24 24"><path d="M4 5h16l-6 7v6l-4 2v-8z" fill="none" stroke="currentColor" stroke-width="2" stroke-linejoin="round"/></symbol>
      <symbol id="icon-info" viewBox="0 0 24 24"><circle cx="12" cy="12" r="9" fill="none" stroke="currentColor" stroke-width="2"/><path d="M12 11v6M12 8h.01" fill="none" stroke="currentColor" stroke-width="2" stroke-linecap="round"/></symbol>
      <symbol id="icon-menu" viewBox="0 0 24 24"><path d="M4 7h16M4 12h16M4 17h16" fill="none" stroke="currentColor" stroke-width="2" stroke-linecap="round"/></symbol>
      <symbol id="icon-save" viewBox="0 0 24 24"><path d="M4 4h13l3 3v13H4zM8 4v6h8V4M8 20v-6h8v6" fill="none" stroke="currentColor" stroke-width="2" stroke-linecap="round" stroke-linejoin="round"/></symbol>
      <symbol id="icon-search" viewBox="0 0 24 24"><circle cx="11" cy="11" r="7" fill="none" stroke="currentColor" stroke-width="2"/><path d="M20 20l-3.5-3.5" fill="none" stroke="currentColor" stroke-width="2" stroke-linecap="round"/></symbol>
      <symbol id="icon-spinner" viewBox="0 0 24 24"><path d="M12 3a9 9 0 1 0 9 9" fill="none" stroke="currentColor" stroke-width="2" stroke-linecap="round"/></symbol>
      <symbol id="icon-warning" viewBox="0 0 24 24"><path d="M12 3l9 16H3z" fill="none" stroke="currentColor" stroke-width="2" stroke-linejoin="round"/><path d="M12 9v5M12 17h.01" fill="none" stroke="currentColor" stroke-width="2" stroke-linecap="round"/></symbol>
      <symbol id="icon-x" viewBox="0 0 24 24"><path d="M6 6l12 12M18 6L6 18" fill="none" stroke="currentColor" stroke-width="2" stroke-linecap="round"/></symbol>
  </defs>
</svg>